<svg width="24" height="24" viewBox="0 0 24 24" fill="none" xmlns="http://www.w3.org/2000/svg">
<path d="M12 22C10.0222 22 8.08879 21.4135 6.4443 20.3147C4.79981 19.2159 3.51809 17.6541 2.76121 15.8268C2.00433 13.9996 1.8063 11.9889 2.19215 10.0491C2.578 8.10929 3.53041 6.32746 4.92894 4.92894C6.32746 3.53041 8.10929 2.578 10.0491 2.19215C11.9889 1.8063 13.9996 2.00433 15.8268 2.76121C17.6541 3.51809 19.2159 4.79981 20.3147 6.4443C21.4135 8.08879 22 10.0222 22 12C21.9971 14.6513 20.9426 17.1931 19.0679 19.0679C17.1931 20.9426 14.6513 21.9971 12 22V22ZM9 12C8.80205 11.9998 8.6085 12.0584 8.44387 12.1684C8.27925 12.2783 8.15096 12.4346 8.07525 12.6175C7.99953 12.8004 7.97981 13.0017 8.01858 13.1958C8.05734 13.39 8.15285 13.5682 8.293 13.708L11.293 16.708C11.4315 16.8484 11.6088 16.9441 11.8022 16.983C11.9955 17.0218 12.196 17.002 12.378 16.926C12.4193 16.9069 12.4582 16.8831 12.494 16.855L12.54 16.822C12.558 16.81 12.576 16.8 12.595 16.79C12.6311 16.773 12.6648 16.7511 12.695 16.725L15.695 13.863C15.8869 13.6799 15.9982 13.428 16.0044 13.1628C16.0105 12.8977 15.9111 12.6409 15.728 12.449C15.5449 12.2571 15.293 12.1458 15.0278 12.1397C14.7627 12.1335 14.5059 12.2329 14.314 12.416L13 13.663V8C13 7.73479 12.8946 7.48043 12.7071 7.2929C12.5196 7.10536 12.2652 7 12 7C11.7348 7 11.4804 7.10536 11.2929 7.2929C11.1054 7.48043 11 7.73479 11 8V13.585L9.707 12.293C9.61443 12.1998 9.50426 12.1259 9.3829 12.0756C9.26153 12.0253 9.13138 11.9996 9 12Z" fill="#ffffff" id="id_101"></path>
</svg>