<svg width="40" height="40" viewBox="0 0 40 40" fill="none" xmlns="http://www.w3.org/2000/svg">
<path d="M20 0C8.97217 0 0 8.9713 0 20C0 31.0287 8.97217 40 20 40C31.0278 40 40 31.0287 40 20C40 8.9713 31.0278 0 20 0ZM13.913 28.6957H10.4348V15.6522H13.913V28.6957ZM12.1739 13.0435C11.213 13.0435 10.4348 12.2652 10.4348 11.3043C10.4348 10.3435 11.213 9.56522 12.1739 9.56522C13.1348 9.56522 13.913 10.3435 13.913 11.3043C13.913 12.2652 13.1348 13.0435 12.1739 13.0435ZM30.4348 28.6957H26.9565V24.3478V22.1739C26.9565 20.5 25.587 19.1304 23.913 19.1304C22.2391 19.1304 20.8696 20.5 20.8696 22.1739V28.6957H17.3913V15.6522H20.8696V17.2313C21.8852 16.2557 23.2626 15.6522 24.7826 15.6522C27.9043 15.6522 30.4348 18.1826 30.4348 21.3043V28.6957Z" fill="white"/>
</svg>
