<svg width="24" height="24" viewBox="0 0 24 24" fill="none" xmlns="http://www.w3.org/2000/svg">
<path d="M12 22C10.0222 22 8.08879 21.4135 6.4443 20.3147C4.79981 19.2159 3.51809 17.6541 2.76121 15.8268C2.00433 13.9996 1.8063 11.9889 2.19215 10.0491C2.578 8.10929 3.53041 6.32746 4.92894 4.92894C6.32746 3.53041 8.10929 2.578 10.0491 2.19215C11.9889 1.8063 13.9996 2.00433 15.8268 2.76121C17.6541 3.51809 19.2159 4.79981 20.3147 6.4443C21.4135 8.08879 22 10.0222 22 12C21.9971 14.6513 20.9426 17.1931 19.0679 19.0679C17.1931 20.9426 14.6513 21.9971 12 22V22ZM11 10.337V16C11 16.2652 11.1054 16.5196 11.2929 16.7071C11.4804 16.8946 11.7348 17 12 17C12.2652 17 12.5196 16.8946 12.7071 16.7071C12.8946 16.5196 13 16.2652 13 16V10.414L14.293 11.707C14.3859 11.7998 14.4962 11.8735 14.6176 11.9237C14.7389 11.9739 14.869 11.9998 15.0004 11.9997C15.1317 11.9997 15.2618 11.9737 15.3831 11.9234C15.5044 11.8731 15.6147 11.7994 15.7075 11.7065C15.8003 11.6136 15.874 11.5033 15.9242 11.3819C15.9744 11.2606 16.0003 11.1305 16.0002 10.9992C16.0002 10.8678 15.9742 10.7377 15.9239 10.6164C15.8736 10.4951 15.7999 10.3848 15.707 10.292L12.707 7.292C12.614 7.199 12.5036 7.12526 12.382 7.075C12.2616 7.02489 12.1324 6.99909 12.002 6.99909C11.8716 6.99909 11.7424 7.02489 11.622 7.075C11.5814 7.09426 11.5432 7.11808 11.508 7.146L11.46 7.18C11.443 7.191 11.424 7.201 11.406 7.211C11.37 7.22825 11.3364 7.2501 11.306 7.276L8.306 10.138C8.21098 10.2287 8.13475 10.3372 8.08166 10.4573C8.02857 10.5774 7.99967 10.7069 7.9966 10.8382C7.99354 10.9695 8.01637 11.1001 8.0638 11.2226C8.11122 11.3451 8.18231 11.457 8.273 11.552C8.36369 11.6472 8.47225 11.7235 8.59248 11.7767C8.7127 11.8299 8.84224 11.8588 8.97366 11.8619C9.10509 11.865 9.23583 11.8421 9.3584 11.7946C9.48098 11.7471 9.59298 11.6758 9.688 11.585L11 10.338V10.337Z" fill="#ffffff" id="id_101"></path>
</svg>