<svg width="160" height="160" viewBox="0 0 160 160" fill="none" xmlns="http://www.w3.org/2000/svg">
<path fill-rule="evenodd" clip-rule="evenodd" d="M79.9998 0C35.8872 0 5.22543e-05 35.8871 5.22543e-05 79.9993C5.22543e-05 95.517 4.40508 110.421 12.7776 123.356L0.624852 150.126C-0.495252 152.594 -0.0873372 155.486 1.67096 157.547C3.01814 159.127 4.97162 160 6.98657 160C7.60213 160 8.22323 159.919 8.83414 159.751L42.3192 150.564C53.8791 156.746 66.843 160 79.9998 160C124.112 160 160 124.112 160 79.9993C160 35.8871 124.112 0 79.9998 0ZM79.9998 146.028C68.316 146.028 56.8195 142.92 46.7538 137.038C45.6749 136.408 44.4568 136.084 43.2298 136.084C42.6101 136.084 41.9886 136.167 41.3813 136.334L19.5066 142.335L27.1257 125.551C28.1612 123.268 27.8958 120.607 26.4297 118.576C18.2796 107.279 13.9722 93.9404 13.9722 79.9992C13.9722 43.5914 43.592 13.9716 79.9998 13.9716C116.408 13.9716 146.028 43.5914 146.028 79.9992C146.028 116.408 116.408 146.028 79.9998 146.028Z" fill="white"/>
<path fill-rule="evenodd" clip-rule="evenodd" d="M110.757 91.9795C107.407 89.9756 103.047 87.7382 99.1002 89.3532C96.0729 90.5921 94.1393 95.332 92.178 97.7526C91.1703 98.9948 89.9688 99.189 88.4227 98.5665C77.0566 94.0389 68.346 86.4507 62.074 75.9962C61.0117 74.3711 61.2023 73.09 62.4829 71.5833C64.3785 69.3533 66.757 66.8199 67.2694 63.8125C67.7819 60.8064 66.3722 57.2912 65.1291 54.6144C63.541 51.1935 61.7651 46.3149 58.3392 44.38C55.1879 42.6004 51.0395 43.5966 48.2328 45.8821C43.3889 49.8269 41.0521 56.0069 41.1219 62.1337C41.1418 63.8744 41.3559 65.6105 41.7624 67.2907C42.7397 71.3317 44.6071 75.1045 46.7095 78.6924C48.2939 81.3969 50.0161 84.0219 51.8744 86.546C57.9544 94.8053 65.5181 101.982 74.2754 107.346C78.6513 110.026 83.3648 112.377 88.2452 113.989C93.719 115.797 98.5962 117.68 104.507 116.557C110.695 115.382 116.796 111.553 119.252 105.589C119.978 103.824 120.343 101.857 119.936 99.9923C119.095 96.1367 113.876 93.8447 110.757 91.9795Z" fill="white"/>
</svg>
